<svg enable-background="new 0 0 19 19" height="19" viewBox="0 0 19 19" width="19" xmlns="http://www.w3.org/2000/svg"><path d="m15.572 18.985c-.312 0-.629 0-.941 0-4.129-.488-7.157-2.408-9.359-4.864-2.21-2.461-3.954-5.629-4.294-9.893 0-.382 0-.762 0-1.144.078-.774.459-1.304.898-1.757.549-.561 1.374-1.283 2.126-1.308.554-.018 1.5.38 1.879.899.329.446.504 1.339.656 2.003.154.671.505 1.643.408 2.289-.148 1.007-1.487 1.434-1.879 2.166 1.307 3.135 3.443 5.439 6.293 7.031.715-.392 1.346-1.572 2.332-1.595.359-.009.818.178 1.184.286.402.121.75.275 1.104.408.596.224 1.648.521 2.004 1.021.365.513.57 1.356.49 1.879-.164 1.041-1.879 2.197-2.901 2.579z" fill="#b7bfc8"/></svg>