<svg enable-background="new 0 0 15 12" height="12" viewBox="0 0 15 12" width="15" xmlns="http://www.w3.org/2000/svg"><g fill="#c1c6ce"><path d="m3 8v4h4v-4h2v4h4v-4l-5-4.484z"/><path d="m14.831 6.365-1.831-1.614v-4.751h-2v2.987l-2.668-2.352c-.02-.017-.043-.023-.064-.037-.026-.018-.052-.035-.08-.047-.032-.012-.063-.018-.095-.024-.031-.006-.061-.012-.093-.012-.031 0-.061.006-.092.012-.033.006-.063.012-.095.025-.028.011-.053.029-.08.046-.021.014-.045.02-.064.037l-6.498 5.73c-.207.183-.227.499-.045.706.099.112.237.169.375.169.118 0 .236-.041.331-.125l6.168-5.438 6.169 5.438c.096.084.214.125.331.125.139 0 .276-.058.375-.169.183-.207.163-.523-.044-.706z"/></g></svg>