<svg enable-background="new 0 0 75 61" height="61" viewBox="0 0 75 61" width="75" xmlns="http://www.w3.org/2000/svg"><g fill="#fff"><path d="m5.039 58.949s0 2.051 1.868 2.051 27.02 0 27.02 0 2.001-.184 2.001-1.984 0-11.074 0-11.074h-30.889z"/><path d="m73.875 8.016h-13.488c-.621-2.287-2.071-3.891-3.762-3.891h-7.542v12.75h7.542c1.69 0 3.141-1.604 3.762-3.891h13.488c.575 0 1.042-1.112 1.042-2.484s-.467-2.484-1.042-2.484z"/><path d="m2.103 0c-1.936 0-2.103 2.041-2.103 2.041s0 12.876 0 15.812 2.903 3.002 2.903 3.002 7.072 0 9.007 0 1.601 1.334 1.601 1.334-2.469 13.01-2.735 15.211c-.267 2.203-1.868 3.604-1.868 3.604s-2.135 1.201-3.002 1.668-.867 2.201-.867 2.201h30.889v-.734c0-1.467-6.472-3.135-9.073-3.402-2.602-.266-2.068-2.002-2.068-2.002l1.067-7.805h3.002l1.134-7.873h-3.002l.331-2.737 8.609-.131c5.805-.601 10.008-4.07 10.008-4.07v-12.01c-4.603-3.269-11.943-4.109-11.943-4.109s-29.955 0-31.89 0zm33.897 4.938v.031c0 .55-.45 1-1 1h-29.969c-.55 0-1-.45-1-1v-.031c0-.55.45-1 1-1h29.969c.55 0 1 .45 1 1z"/></g></svg>