<svg enable-background="new 0 0 59 72" height="72" viewBox="0 0 59 72" width="59" xmlns="http://www.w3.org/2000/svg"><g fill="#fff"><path d="m58.34 20.545c-.566-.753-1.454-1.195-2.396-1.195h-38.67l-2.475-7.385h-11.741c-1.657 0-3 1.343-3 3s1.343 3 3 3h7.424l13.5 40.285h25.159c1.657 0 3-1.343 3-3s-1.343-3-3-3h-20.842l-1.726-5.149h23.12c1.338 0 2.514-.886 2.884-2.172l6.25-21.75c.26-.906.079-1.881-.487-2.634zm-7.781 9.681h-4.81v-4.876h6.211zm-17.617 0v-4.876h6.807v4.875h-6.807zm6.807 6v4.875h-6.807v-4.875zm-12.807-10.876v4.875h-6.023l-1.634-4.875zm-4.013 10.876h4.013v4.875h-2.379zm22.82 4.875v-4.875h3.086l-1.401 4.875z"/><circle cx="27.406" cy="66.094" r="5.781"/><circle cx="44.844" cy="66.094" r="5.781"/><path d="m29.335 9.699 7.547 5.492c.914.665 2.174.441 2.818-.494.646-.936.43-2.232-.48-2.895l-2.373-1.726 9.436-5.09 4.628 12.014h4.347l-6.044-15.691c-.211-.548-.64-.978-1.177-1.183-.536-.205-1.135-.166-1.643.109l-13.248 7.147-3.022-2.199c-.872-.634-2.071-.462-2.742.39l-8.481 10.798c-.169.181-.305.395-.405.628h5.106z"/></g></svg>