<svg enable-background="new 0 0 78 62" height="62" viewBox="0 0 78 62" width="78" xmlns="http://www.w3.org/2000/svg"><g fill="#fff"><path d="m16.125 29.749c-8.905 0-16.125 7.219-16.125 16.126 0 8.905 7.22 16.125 16.125 16.125s16.125-7.22 16.125-16.125c.001-8.907-7.219-16.126-16.125-16.126zm0 23.433c-4.036 0-7.307-3.271-7.307-7.307 0-4.037 3.271-7.308 7.307-7.308s7.307 3.271 7.307 7.308c.001 4.035-3.27 7.307-7.307 7.307z"/><path d="m60.854 45.874c-4.453 0-8.062 3.61-8.062 8.062 0 4.453 3.609 8.063 8.062 8.063s8.062-3.61 8.062-8.063c.001-4.452-3.608-8.062-8.062-8.062zm0 13.126c-2.796 0-5.062-2.268-5.062-5.063s2.267-5.062 5.062-5.062 5.062 2.268 5.062 5.062c.001 2.795-2.266 5.063-5.062 5.063z"/><path d="m77.898 49.727s-2.023-15.102-2.461-18.414c-.547-4.141-3.625-4.688-3.625-4.688l-5.812-.679v-11.946h-3v5.833h-4v5.295l-11.812-1.378s-9.75-20.062-10.562-21.875-3.126-1.875-3.126-1.875-22.375 2.375-24.75 3-3.438 3.167-3.438 3.167c-2.308 6.37-2.311 17.296-2.266 20.255 3.736-2.517 8.236-3.986 13.079-3.986 12.944 0 23.438 10.493 23.438 23.439 0 2.438-.373 4.789-1.064 7h10.164c.39-6.402 5.69-11.479 12.191-11.479s11.802 5.077 12.191 11.479h1.955c3.641 0 2.898-3.148 2.898-3.148zm-54.815-29.894h-6.958v-13.666h6.958zm10 0h-6.958v-13.666h6.958zm19.933 16.167h-4.016v-7h4.016zm7 0h-4.016v-7h4.016zm7 0h-4.016v-7h4.016z"/></g></svg>